<svg preserveAspectRatio="none" width="100%" height="100%" overflow="visible" style="display: block;" viewBox="0 0 129.113 27.962" fill="none" xmlns="http://www.w3.org/2000/svg">
<g id="Group">
<path id="Vector" d="M47.7358 27.962H42.2078V5.65718H47.093L47.4144 8.16407C48.5715 6.36425 50.1142 5.40006 52.1711 5.27151C55.0636 5.07867 57.6991 6.87849 58.7918 9.64249C60.0131 12.7279 59.8203 16.2632 58.2133 19.0915C56.6063 21.9198 54.2923 22.6911 51.5283 22.1769C48.7643 21.6627 48.8286 21.1484 47.8001 19.7343V27.962H47.7358ZM51.0141 17.6131C52.1068 17.6131 53.0067 17.0346 53.4567 16.0704C54.1637 14.592 54.1637 12.7279 53.3281 11.3137C52.4925 9.8996 51.2069 9.77104 49.857 10.1567C47.4787 10.7995 47.2859 14.4634 48.2501 16.1347C49.2142 17.8059 49.7285 17.6774 51.0783 17.6774L51.0141 17.6131Z" fill="var(--fill-0, #2563EB)"/>
<path id="Vector_2" d="M7.49762 22.305C4.4765 22.5621 1.77678 20.7623 0.748312 17.9983C-0.922945 13.563 0.041241 6.9423 5.31213 5.52816C7.88329 4.82109 10.4545 5.72099 11.8686 7.97076V0.0644319H17.3966V21.9836H12.4471L12.0614 19.4124C11.0972 21.0194 9.55455 22.0479 7.5619 22.2407L7.49762 22.305ZM11.6115 14.8486C11.8043 13.4988 11.74 12.0846 10.8401 10.9919C9.94023 9.89914 7.8833 9.57774 6.72627 10.5419C5.56925 11.5061 5.24785 13.563 5.56925 15.1057C5.89064 16.6484 7.11195 17.6769 8.65465 17.6126C10.1973 17.5483 11.3544 16.5199 11.5472 14.8486H11.6115Z" fill="var(--fill-0, #2563EB)"/>
<path id="Vector_3" d="M122.365 21.9835H116.837V12.4059C116.837 11.6988 116.387 10.8632 115.872 10.5418C114.972 9.89898 114.008 9.89898 113.108 10.3489C112.208 10.7989 111.694 11.6345 111.694 12.7273V21.9835H106.102V0H111.63V7.90633C112.658 6.62075 113.558 5.78512 115.037 5.39944C117.479 4.82093 120.179 5.65656 121.4 7.90633C122.622 10.1561 122.3 10.7989 122.429 12.3416V21.9192L122.365 21.9835Z" fill="var(--fill-0, #2563EB)"/>
<path id="Vector_4" d="M38.8654 21.0197C36.4871 22.6909 31.9232 22.6267 29.6092 21.4696C27.2951 20.3126 26.331 18.7056 26.0738 16.4559H31.6018L32.0518 17.4843C32.8231 18.32 34.173 18.5128 35.2015 17.9986C36.2299 17.4843 35.7157 17.1629 35.5871 16.7773C35.4586 16.3916 35.0729 16.0702 34.6872 15.9416L30.8948 15.0417C29.6092 14.7203 28.3236 14.2061 27.4237 13.2419C26.5238 12.2777 26.1381 10.6065 26.5238 9.12805C27.488 5.20702 33.1445 4.56423 36.4228 5.78554C39.701 7.00684 40.2795 8.54954 40.6009 10.9279H35.33C35.0086 9.64228 33.8516 8.99949 32.566 9.2566C31.2804 9.51372 31.6661 9.70656 31.6018 10.0922C31.5376 10.4779 31.9232 11.1207 32.4375 11.2493L37.4512 12.5991C38.8654 12.9848 40.0224 13.8847 40.6009 15.2346C41.4365 17.2915 40.7295 19.6698 38.9297 20.9554L38.8654 21.0197Z" fill="var(--fill-0, #2563EB)"/>
<path id="Vector_5" d="M98.2591 17.2269C98.9661 16.8412 99.2233 16.0699 99.5447 15.3628L104.687 15.8127C104.623 17.6126 103.723 19.2195 102.437 20.3766C101.152 21.5336 99.0947 22.2407 97.102 22.3049C92.7953 22.4978 89.1314 19.6695 88.6172 15.2985C88.2958 12.9845 88.6172 10.6061 89.9671 8.67776C92.2811 5.33525 96.8449 4.43534 100.38 5.91376C103.916 7.39218 104.366 9.12771 104.687 11.7632L99.5447 12.3417C98.9661 10.799 98.3233 9.96334 96.7164 10.0276C95.1094 10.0919 95.0451 10.4776 94.5952 11.2489C93.8238 12.6631 93.6952 14.3986 94.338 15.877C94.9808 17.3554 96.7806 18.1268 98.2591 17.2912V17.2269Z" fill="var(--fill-0, #2563EB)"/>
<path id="Vector_6" d="M87.9748 17.5477V21.9187C85.725 22.3044 81.9326 22.4972 80.2613 20.5688C78.59 18.6405 79.04 18.5762 79.04 17.4191V9.96277H76.726V5.65607C77.4973 5.59179 78.5258 5.78463 78.9757 5.14184C79.8113 3.85626 79.5542 2.31356 79.6828 0.835136H84.568V5.52751H88.0391V9.96277H84.5037V16.0693C84.5037 16.7764 85.018 17.4834 85.7893 17.4834H88.0391L87.9748 17.5477Z" fill="var(--fill-0, #2563EB)"/>
<path id="Vector_7" d="M19.1959 11.0556C19.1959 9.96282 19.3887 9.06292 20.2243 8.42013L24.7239 5.20617C23.5668 5.52757 22.4098 5.59184 21.5099 5.39901C20.9314 5.27045 20.0315 5.01333 19.5173 4.17771C19.3887 3.98487 18.9387 3.21352 19.1316 2.24933C19.3244 1.28515 20.0958 0.770913 20.2243 0.706634C21.1885 0.128122 22.1527 0.385237 22.4098 0.449516C23.4383 0.706633 24.7881 1.79938 24.7881 3.14924V22.1116C24.8524 22.1116 19.1959 22.1116 19.1959 22.1116V11.1841V11.0556Z" fill="var(--fill-0, #2563EB)"/>
<path id="Vector_8" d="M126.285 22.3048C127.847 22.3048 129.113 21.0385 129.113 19.4765C129.113 17.9145 127.847 16.6482 126.285 16.6482C124.723 16.6482 123.456 17.9145 123.456 19.4765C123.456 21.0385 124.723 22.3048 126.285 22.3048Z" fill="var(--fill-0, #2563EB)"/>
<path id="Vector_9" d="M60.9777 14.7201C62.9704 11.8918 69.2054 12.3418 70.1696 11.5704C71.1338 10.7991 70.3625 9.70632 69.5268 9.4492C68.6912 9.19208 67.7913 9.19208 67.0842 9.51348C66.3772 9.83487 66.0558 10.4777 65.9915 11.3133L60.8492 11.0562C60.9134 8.67785 62.5204 6.74948 64.7702 5.91385C67.0199 5.07822 69.8482 5.07822 72.2266 5.91385C74.6049 6.74948 76.019 8.5493 76.019 10.9276L76.1476 18.7054C76.1476 19.9267 76.5333 21.0194 76.8546 22.0479H71.5838L70.941 19.541C69.0126 23.0764 62.9704 23.1406 60.9777 20.3124C58.9851 17.4841 59.7564 16.4556 60.9777 14.7201ZM66.4414 18.3197C67.727 18.834 69.334 18.3197 70.1053 17.1627C70.8767 16.0057 70.6839 15.2343 70.5553 14.3987C68.7555 15.2343 65.9272 14.9772 65.6058 16.5199C65.2844 18.0626 65.6058 17.934 66.4414 18.2554V18.3197Z" fill="var(--fill-0, #2563EB)"/>
</g>
</svg>
