<svg preserveAspectRatio="none" width="100%" height="100%" overflow="visible" style="display: block;" viewBox="0 0 15.4992 16.1925" fill="none" xmlns="http://www.w3.org/2000/svg">
<g id="Frame">
<path id="Vector" d="M7.72101 4.02692C6.94319 4.02692 6.30264 3.88966 5.8451 3.29486L3.55739 0.0920637C3.78616 0.915639 3.78616 1.69346 3.64889 2.33402C3.55739 2.7458 3.37437 3.38636 2.73381 3.7524C2.55079 3.88966 2.0475 4.16418 1.36119 4.02692C0.674874 3.88966 0.308841 3.34061 0.263086 3.2491C-0.148701 2.56279 0.0343157 1.87648 0.0800699 1.69346C0.263087 0.961393 1.04091 0.000553278 2.00174 0.000553278H15.4992C15.4992 -0.0452009 15.4992 3.98117 15.4992 3.98117H7.72101V4.02692Z" fill="var(--fill-0, #2563EB)"/>
<path id="Vector_2" d="M7.72101 10.0909C6.94319 10.0909 6.30264 9.95366 5.8451 9.35885L3.55739 6.15606C3.78616 6.97964 3.78616 7.75746 3.64889 8.39801C3.55739 8.8098 3.37437 9.45036 2.73381 9.8164C2.55079 9.95366 2.0475 10.2282 1.36119 10.0909C0.674874 9.95365 0.308841 9.40461 0.263086 9.3131C-0.148701 8.62679 0.0343157 7.94048 0.0800699 7.75746C0.263087 7.02539 1.04091 6.06455 2.00174 6.06455H15.4992C15.4992 6.0188 15.4992 10.0452 15.4992 10.0452H7.72101V10.0909Z" fill="var(--fill-0, #2563EB)"/>
<path id="Vector_3" d="M7.72101 16.1551C6.94319 16.1551 6.30264 16.0178 5.8451 15.423L3.55739 12.2202C3.78616 13.0438 3.78616 13.8216 3.64889 14.4622C3.55739 14.874 3.37437 15.5145 2.73381 15.8806C2.55079 16.0178 2.0475 16.2923 1.36119 16.1551C0.674874 16.0178 0.308841 15.4688 0.263086 15.3773C-0.148701 14.691 0.0343157 14.0046 0.0800699 13.8216C0.263087 13.0896 1.04091 12.1287 2.00174 12.1287H15.4992C15.4992 12.083 15.4992 16.1093 15.4992 16.1093H7.72101V16.1551Z" fill="var(--fill-0, #2563EB)"/>
</g>
</svg>
